<?xml version="1.0" encoding="utf-8"?>
<!-- Generator: Adobe Illustrator 20.0.0, SVG Export Plug-In . SVG Version: 6.00 Build 0)  -->
<svg version="1.1" id="Layer_1" xmlns="http://www.w3.org/2000/svg" xmlns:xlink="http://www.w3.org/1999/xlink" x="0px" y="0px"
	 viewBox="0 0 32 32" style="enable-background:new 0 0 32 32;" xml:space="preserve">
<style type="text/css">
	.st0{fill:#07ACC8;}
</style>
<g>
	<path class="st0" d="M26.3,20.7h-5.7c-0.4,0-0.7,0.3-0.7,0.6c0,0.3,0.3,0.6,0.7,0.6l1.1,4.5H11.1l1.1-4.5c0.4,0,0.6-0.3,0.6-0.6
		c0-0.3-0.3-0.6-0.7-0.6H5.7L0,31.9h32L26.3,20.7z M8.6,30.7H2.2l1.4-2.8h5.7L8.6,30.7z M4.3,26.4l2.3-4.5h4.1l-1.1,4.5H4.3z
		 M10,30.7l0.7-2.8H22l0.7,2.8H10z M21.9,21.9h3.4l2.3,4.5h-4.6L21.9,21.9z M23.4,27.8h5l1.4,2.8h-5.7L23.4,27.8z"/>
</g>
<g>
	<path class="st0" d="M16.3,25.9L9.8,14.6c-1.3-1.6-2-3.5-2-5.6c0-4.8,3.8-8.6,8.6-8.6s8.6,3.9,8.6,8.6c0,2-0.7,4-2,5.6L16.3,25.9z
		 M16.3,1.8C12.4,1.8,9.2,5,9.2,9c0,1.7,0.6,3.4,1.7,4.7l0.1,0.1l5.3,9.3l5.4-9.4c1.1-1.3,1.7-3,1.7-4.7C23.5,5,20.3,1.8,16.3,1.8z"
		/>
</g>
<g>
	<ellipse class="st0" cx="16.3" cy="9.1" rx="2.5" ry="2.5"/>
</g>
</svg>
