<?xml version="1.0" encoding="utf-8"?>
<!-- Generator: Adobe Illustrator 20.0.0, SVG Export Plug-In . SVG Version: 6.00 Build 0)  -->
<svg version="1.1" id="Layer_1" xmlns="http://www.w3.org/2000/svg" xmlns:xlink="http://www.w3.org/1999/xlink" x="0px" y="0px"
	 viewBox="0 0 32 32" style="enable-background:new 0 0 32 32;" xml:space="preserve">
<style type="text/css">
	.st0{fill:#222221;}
	.st1{fill:#FFFFFF;}
</style>
<g>
	<path class="st0" d="M2.1,26.7h0.1v-0.1L2.1,26.7z"/>
</g>
<g>
	<ellipse class="st1" cx="4" cy="28.4" rx="1" ry="1"/>
</g>
<g>
	<path class="st1" d="M2.2,24.8L2.2,24.8L2.2,24.8C2.2,24.8,2.2,24.8,2.2,24.8z M2.1,26.5h0.1v-0.1L2.1,26.5z"/>
	<path class="st1" d="M18.1,24.4l12-7l-3.8-6.6l-11.1,6.5l6.6-11.6L15.3,2L8.3,14.3V0H0.7v26C0.3,26.6,0,27.3,0,28.2
		C0,30.7,1.4,32,3.9,32H32v-7.6H18.1z M25.8,12.9l2.3,4.1l-12.9,7.5H5.8l6.6-3.8l1.3-0.8L25.8,12.9z M15.8,4l4,2.3l-7.2,12.5
		l-8.1,4.7l3.6-6.3L15.8,4z M2.2,1.5h4.6v15.3l-4.6,8v0l-0.1,0.1V1.5z M2.2,26.4L2.2,26.4l-0.1,0.1L2.2,26.4z M30.6,30.5H3.9
		c-1.7,0-2.4-0.7-2.4-2.3c0-1,0.5-1.7,1.2-2.1C2.8,26.1,2.9,26.1,3,26c0,0,0,0,0.1,0c0.3-0.1,0.5-0.1,0.8-0.1h26.7V30.5z"/>
</g>
</svg>
