<?xml version="1.0" encoding="utf-8"?>
<!-- Generator: Adobe Illustrator 20.0.0, SVG Export Plug-In . SVG Version: 6.00 Build 0)  -->
<svg version="1.1" id="Layer_1" xmlns="http://www.w3.org/2000/svg" xmlns:xlink="http://www.w3.org/1999/xlink" x="0px" y="0px"
	 viewBox="0 0 24 24" style="enable-background:new 0 0 24 24;" xml:space="preserve">
<style type="text/css">
	.st0{fill:#222221;}
</style>
<g>
	<path class="st0" d="M2,19.4L2,19.4L2,19.4L2,19.4z"/>
	<path class="st0" d="M13.5,17.9l8.6-5l-2.7-4.7l-8,4.6l4.8-8.3l-4.7-2.7l-5.1,8.8V0.5H1v18.6c-0.3,0.4-0.5,1-0.5,1.6
		c0,1.7,1,2.7,2.8,2.7h20.2v-5.4H13.5z M19.1,9.7l1.7,2.9l-9.3,5.4H4.7L2.9,19l0,0l1.8-1l4.8-2.7l1-0.5L19.1,9.7z M11.9,3.3L14.8,5
		l-5.1,8.9l-5.8,3.3l2.6-4.5L11.9,3.3z M2.1,1.5h3.3v11l-3.3,5.7v0l-0.1,0.1V1.5z M2.1,19.4L2.1,19.4L2.1,19.4L2.1,19.4z M22.5,22.3
		H3.3c-1.2,0-1.7-0.5-1.7-1.7c0-0.7,0.4-1.2,0.9-1.5c0.1-0.1,0.2-0.1,0.3-0.1c0,0,0,0,0,0C2.9,19,3.1,19,3.3,19h19.2V22.3z"/>
</g>
<g>
	<path class="st0" d="M2.7,19.1l-0.2,0.1C2.5,19.1,2.6,19.1,2.7,19.1C2.7,19.1,2.7,19.1,2.7,19.1z"/>
</g>
<g>
	<circle class="st0" cx="3.4" cy="20.6" r="0.7"/>
</g>
<g>
	<polygon class="st0" points="9.5,15.2 4.7,17.9 2.9,19 2.9,19 4.7,17.9 	"/>
</g>
<g>
	<path class="st0" d="M2,19.4L2,19.4L2,19.4L2,19.4z M2.1,18.2L2.1,18.2L2.1,18.2C2.1,18.2,2.1,18.2,2.1,18.2z M4.7,17.9l-1.8,1l0,0
		L4.7,17.9L4.7,17.9z"/>
</g>
</svg>
