<?xml version="1.0" encoding="utf-8"?>
<!-- Generator: Adobe Illustrator 20.0.0, SVG Export Plug-In . SVG Version: 6.00 Build 0)  -->
<svg version="1.1" id="Layer_1" xmlns="http://www.w3.org/2000/svg" xmlns:xlink="http://www.w3.org/1999/xlink" x="0px" y="0px"
	 viewBox="0 0 24 24" style="enable-background:new 0 0 24 24;" xml:space="preserve">
<style type="text/css">
	.st0{fill:#222221;}
</style>
<g>
	<path class="st0" d="M22.7,9.3V4.7h-5.3c0-0.1-0.1-0.1-0.2-0.2l-4.8-3.6l0,0c0,0,0,0,0,0c-0.1,0-0.1-0.1-0.2-0.1
		c-0.1,0-0.1,0-0.2,0s-0.2,0-0.2,0c-0.1,0-0.1,0-0.2,0.1c0,0,0,0,0,0L7,4.4C6.9,4.5,6.8,4.6,6.7,4.7H1.2v4.5L0.5,8.9v11.5
		c0,0.6,0.2,1.1,0.6,1.5c0.4,0.4,0.9,0.6,1.5,0.6h18.7c0.6,0,1.1-0.2,1.5-0.6c0.4-0.4,0.6-0.9,0.6-1.5V8.9L22.7,9.3z M12,2.4
		l3.1,2.3H8.9L12,2.4z M2.6,6.1h18.7v3.9L12,15L2.6,10V6.1z M1.9,20.3v-9.1L8,14.5L1.9,20.3z M3.2,21.1l6.2-5.8l2,1.1l0.7,0.4
		l0.7-0.4l2.1-1.1l6.3,5.9H3.2z M22.1,20.1l-6-5.7l5.9-3.2l0.1-0.1V20.1z"/>
</g>
<g>
	<path class="st0" d="M2.6,10v0.4c0,0.4-0.3,0.7-0.7,0.7s-0.7-0.3-0.7-0.7V9.2L2.6,10z"/>
	<path class="st0" d="M22.7,9.3v1.1c0,0.4-0.3,0.7-0.7,0.7c-0.4,0-0.7-0.3-0.7-0.7v-0.4L22.7,9.3z"/>
</g>
<g>
	<path class="st0" d="M19.5,8.6H4.6c-0.4,0-0.7-0.3-0.7-0.7s0.3-0.7,0.7-0.7h14.9c0.4,0,0.7,0.3,0.7,0.7S19.9,8.6,19.5,8.6z"/>
</g>
<g>
	<path class="st0" d="M19.5,10.8H4.6c-0.4,0-0.7-0.3-0.7-0.7s0.3-0.7,0.7-0.7h14.9c0.4,0,0.7,0.3,0.7,0.7S19.9,10.8,19.5,10.8z"/>
</g>
<g>
	<path class="st0" d="M15.2,13H9.2c-0.4,0-0.7-0.3-0.7-0.7s0.3-0.7,0.7-0.7h6.1c0.4,0,0.7,0.3,0.7,0.7S15.6,13,15.2,13z"/>
</g>
</svg>
