<?xml version="1.0" encoding="utf-8"?>
<!-- Generator: Adobe Illustrator 20.0.0, SVG Export Plug-In . SVG Version: 6.00 Build 0)  -->
<svg version="1.1" id="Layer_1" xmlns="http://www.w3.org/2000/svg" xmlns:xlink="http://www.w3.org/1999/xlink" x="0px" y="0px"
	 viewBox="0 0 24 24" style="enable-background:new 0 0 24 24;" xml:space="preserve">
<style type="text/css">
	.st0{fill:#222221;}
</style>
<g>
	<path class="st0" d="M6.7,23.9H0V0h6.7V23.9z M1.1,22.8h4.5V1.1H1.1V22.8z"/>
</g>
<g>
	<path class="st0" d="M13.8,23.9H7.1V2.3h6.7V23.9z M8.2,22.8h4.5V3.4H8.2V22.8z"/>
</g>
<g>
	<path class="st0" d="M16.8,24L13.3,3.3L19.9,2l3.5,20.7L16.8,24z M14.6,4.1l3.1,18.6l4.5-0.9L19,3.2L14.6,4.1z"/>
</g>
<g>
	<rect x="0.5" y="19.1" class="st0" width="5.6" height="0.7"/>
</g>
<g>
	<rect x="7.3" y="19.1" class="st0" width="5.6" height="0.7"/>
</g>
<g>
	<rect x="0.5" y="10.8" class="st0" width="5.6" height="0.7"/>
</g>
<g>
	<rect x="7.3" y="10.8" class="st0" width="5.6" height="0.7"/>
</g>
<g>
	<rect x="16.4" y="19.1" transform="matrix(0.98 -0.1988 0.1988 0.98 -3.4958 4.2)" class="st0" width="5.6" height="0.7"/>
</g>
<g>
	<rect x="1.9" y="5.1" class="st0" width="3" height="5.1"/>
</g>
<g>
	<rect x="9" y="7.7" class="st0" width="3" height="2.6"/>
</g>
<g>
	<rect x="15.4" y="10.8" transform="matrix(0.9869 -0.1614 0.1614 0.9869 -1.5679 3.0891)" class="st0" width="5.6" height="0.7"/>
</g>
<g>
	<rect x="16.3" y="7.7" transform="matrix(0.9868 -0.162 0.162 0.9868 -1.2192 3)" class="st0" width="3" height="2.6"/>
</g>
</svg>
