<?xml version="1.0" encoding="utf-8"?>
<!-- Generator: Adobe Illustrator 20.0.0, SVG Export Plug-In . SVG Version: 6.00 Build 0)  -->
<svg version="1.1" id="Layer_1" xmlns="http://www.w3.org/2000/svg" xmlns:xlink="http://www.w3.org/1999/xlink" x="0px" y="0px"
	 viewBox="0 0 32 32" style="enable-background:new 0 0 32 32;" xml:space="preserve">
<style type="text/css">
	.st0{fill:#FFFFFF;}
</style>
<g>
	<path class="st0" d="M8.9,31.7H0V0h8.9V31.7z M1.4,30.3h6V1.4h-6V30.3z"/>
</g>
<g>
	<path class="st0" d="M18.3,31.7H9.5V3h8.9V31.7z M10.9,30.3h6V4.5h-6V30.3z"/>
</g>
<g>
	<path class="st0" d="M22.3,31.8L17.7,4.3l8.7-1.7l4.6,27.5L22.3,31.8z M19.3,5.5l4.2,24.7l5.9-1.2L25.3,4.3L19.3,5.5z"/>
</g>
<g>
	<rect x="0.7" y="25.4" class="st0" width="7.5" height="1"/>
</g>
<g>
	<rect x="9.7" y="25.4" class="st0" width="7.5" height="1"/>
</g>
<g>
	<rect x="0.7" y="14.4" class="st0" width="7.5" height="1"/>
</g>
<g>
	<rect x="9.7" y="14.4" class="st0" width="7.5" height="1"/>
</g>
<g>
	<rect x="21.7" y="25.4" transform="matrix(0.98 -0.1988 0.1988 0.98 -4.6382 5.5726)" class="st0" width="7.5" height="1"/>
</g>
<g>
	<rect x="2.5" y="6.8" class="st0" width="4" height="6.8"/>
</g>
<g>
	<rect x="11.9" y="10.2" class="st0" width="4" height="3.4"/>
</g>
<g>
	<rect x="20.5" y="14.4" transform="matrix(0.9869 -0.1614 0.1614 0.9869 -2.0802 4.0986)" class="st0" width="7.5" height="1"/>
</g>
<g>
	<rect x="21.6" y="10.2" transform="matrix(0.9868 -0.162 0.162 0.9868 -1.6176 3.9804)" class="st0" width="4" height="3.4"/>
</g>
</svg>
