<?xml version="1.0" encoding="utf-8"?>
<!-- Generator: Adobe Illustrator 20.0.0, SVG Export Plug-In . SVG Version: 6.00 Build 0)  -->
<svg version="1.1" id="Layer_1" xmlns="http://www.w3.org/2000/svg" xmlns:xlink="http://www.w3.org/1999/xlink" x="0px" y="0px"
	 viewBox="0 0 24 24" style="enable-background:new 0 0 24 24;" xml:space="preserve">
<style type="text/css">
	.st0{fill:#44A8F0;}
</style>
<g>
	<path class="st0" d="M22.6,17.9v3.5H1.4v-3.5H22.6 M24,16.5H0v6.3h24V16.5L24,16.5z"/>
</g>
<g>
	<g>
		<path class="st0" d="M7.5,19.6l0.7,0.7l-0.5,0.5l-0.7-0.7L6.1,21l-0.6-0.6l0.9-0.9l-0.7-0.7l0.5-0.5l0.7,0.7l0.8-0.8l0.6,0.6
			L7.5,19.6z"/>
	</g>
</g>
<g>
	<g>
		<path class="st0" d="M12.7,19.6l0.7,0.7L13,20.9l-0.7-0.7L11.4,21l-0.6-0.6l0.9-0.9l-0.7-0.7l0.5-0.5l0.7,0.7l0.8-0.8l0.6,0.6
			L12.7,19.6z"/>
	</g>
</g>
<g>
	<g>
		<path class="st0" d="M17.5,19.6l0.7,0.7l-0.5,0.5L17,20.1L16.1,21l-0.6-0.6l0.9-0.9l-0.7-0.7l0.5-0.5l0.7,0.7l0.8-0.8l0.6,0.6
			L17.5,19.6z"/>
	</g>
</g>
<g>
	<path class="st0" d="M12,9.3c-2.4,0-4.4-2-4.4-4.4c0-2.4,2-4.4,4.4-4.4s4.4,2,4.4,4.4C16.4,7.4,14.4,9.3,12,9.3z M12,2
		c-1.6,0-3,1.3-3,3s1.3,3,3,3c1.6,0,3-1.3,3-3S13.6,2,12,2z"/>
</g>
<g>
	<path class="st0" d="M18.1,13.9h-1.4c0-2.6-2.1-4.7-4.7-4.7s-4.7,2.1-4.7,4.7H5.9c0-3.4,2.7-6.1,6.1-6.1S18.1,10.6,18.1,13.9z"/>
</g>
</svg>
