<?xml version="1.0" encoding="utf-8"?>
<!-- Generator: Adobe Illustrator 20.0.0, SVG Export Plug-In . SVG Version: 6.00 Build 0)  -->
<svg version="1.1" id="Layer_1" xmlns="http://www.w3.org/2000/svg" xmlns:xlink="http://www.w3.org/1999/xlink" x="0px" y="0px"
	 viewBox="0 0 32 32" style="enable-background:new 0 0 32 32;" xml:space="preserve">
<style type="text/css">
	.st0{fill:#FFFFFF;}
</style>
<g>
	<rect x="10.6" y="16.5" class="st0" width="11.4" height="1.4"/>
</g>
<g>
	<rect x="10.6" y="19.6" class="st0" width="11.4" height="1.4"/>
</g>
<g>
	<rect x="10.6" y="22.7" class="st0" width="11.4" height="1.4"/>
</g>
<g>
	<path class="st0" d="M15.8,4.3l6,3.7l0.3,0.2h0.4h8v17h-3.7V10.7V9.3h-1.4h-8.6l-6.4-3.7l-0.3-0.2H9.8H8.2v-1H15.8 M16.2,2.9H6.8
		v3.9h3l6.7,3.9h9v16H32V6.8h-9.5L16.2,2.9L16.2,2.9z"/>
</g>
<g>
	<path class="st0" d="M9.7,6.7l6.4,3.7l0.3,0.2h0.4h8.7v17H1.4v-21H9.7 M10.1,5.3H0v23.8h26.9V9.2H16.8L10.1,5.3L10.1,5.3z"/>
</g>
</svg>
