<?xml version="1.0" encoding="utf-8"?>
<!-- Generator: Adobe Illustrator 20.0.0, SVG Export Plug-In . SVG Version: 6.00 Build 0)  -->
<svg version="1.1" id="Layer_1" xmlns="http://www.w3.org/2000/svg" xmlns:xlink="http://www.w3.org/1999/xlink" x="0px" y="0px"
	 viewBox="0 0 24 24" style="enable-background:new 0 0 24 24;" xml:space="preserve">
<style type="text/css">
	.st0{fill:#222221;}
</style>
<g>
	<rect x="7.9" y="12.4" class="st0" width="8.6" height="1.1"/>
</g>
<g>
	<rect x="7.9" y="14.7" class="st0" width="8.6" height="1.1"/>
</g>
<g>
	<rect x="7.9" y="17" class="st0" width="8.6" height="1.1"/>
</g>
<g>
	<path class="st0" d="M11.9,3.2L16.3,6l0.3,0.2h0.3h6V19h-2.8V8V6.9h-1.1h-6.5L7.9,4.1L7.6,4H7.3H6.1V3.2H11.9 M12.2,2.2H5.1v2.9
		h2.2l5.1,3h6.7v12H24V5.1h-7.1L12.2,2.2L12.2,2.2z"/>
</g>
<g>
	<path class="st0" d="M7.3,5l4.8,2.8L12.3,8h0.3h6.5v12.8H1.1V5H7.3 M7.6,4H0v17.9h20.2V6.9h-7.6L7.6,4L7.6,4z"/>
</g>
</svg>
