<?xml version="1.0" encoding="utf-8"?>
<!-- Generator: Adobe Illustrator 20.0.0, SVG Export Plug-In . SVG Version: 6.00 Build 0)  -->
<svg version="1.1" id="Layer_1" xmlns="http://www.w3.org/2000/svg" xmlns:xlink="http://www.w3.org/1999/xlink" x="0px" y="0px"
	 viewBox="0 0 24 24" style="enable-background:new 0 0 24 24;" xml:space="preserve">
<style type="text/css">
	.st0{fill:#222221;}
	.st1{fill-rule:evenodd;clip-rule:evenodd;fill:#222221;}
</style>
<path class="st0" d="M19.9,23.5c0.1,0,0.2,0,0.3,0c0.1,0,0.1,0,0.1,0H19.9z"/>
<path class="st0" d="M18.4,7.2V0.5H1.2v19.6c0,1.8,1.5,3.3,3.3,3.3h15.4c0,0,0,0,0,0c0.1,0,0.1,0,0.2,0c1.5,0,2.7-1.2,2.7-2.7V7.2
	H18.4z M4.5,22c-1.1,0-1.9-0.9-1.9-1.9V1.9H17v19.8c0,0.1,0,0.2,0,0.3H4.5z M21.4,20.8c0,0.7-0.6,1.3-1.3,1.3
	c-0.7,0-1.3-0.6-1.3-1.3V8.6h2.6V20.8z"/>
<g>
	<rect x="4" y="5.3" class="st0" width="11.1" height="1.4"/>
</g>
<g>
	<rect x="4" y="7.4" class="st0" width="11.1" height="1.4"/>
</g>
<g>
	<rect x="9.6" y="11.7" class="st0" width="5.5" height="1.4"/>
</g>
<g>
	<rect x="9.6" y="13.9" class="st0" width="5.5" height="1.4"/>
</g>
<g>
	<rect x="9.6" y="16" class="st0" width="5.5" height="1.4"/>
</g>
<rect x="4" y="11" class="st1" width="4.4" height="7"/>
</svg>
