<?xml version="1.0" encoding="utf-8"?>
<!-- Generator: Adobe Illustrator 20.0.0, SVG Export Plug-In . SVG Version: 6.00 Build 0)  -->
<svg version="1.1" id="Layer_1" xmlns="http://www.w3.org/2000/svg" xmlns:xlink="http://www.w3.org/1999/xlink" x="0px" y="0px"
	 viewBox="0 0 32 32" style="enable-background:new 0 0 32 32;" xml:space="preserve">
<style type="text/css">
	.st0{fill:#222221;}
</style>
<g>
	<path class="st0" d="M25.5,9.3V0H0v27.3C0,29.9,2.2,32,4.9,32h23.4c2.1,0,3.7-1.7,3.7-3.8V9.3H25.5z M4.9,30.5
		c-1.9,0-3.5-1.5-3.5-3.2V1.4H24v27v0.5c0,0.9,0.3,1.6,0.8,1.6H4.9z M30.6,28.2c0,1.3-1.1,2.4-2.4,2.4h-0.5c-1.1,0-2-0.8-2.3-1.8
		c0-0.2-0.1-0.4-0.1-0.6V10.7h5.2v17.5H30.6z"/>
</g>
<g>
	<rect x="4.3" y="6.9" class="st0" width="16.3" height="1.4"/>
</g>
<g>
	<rect x="4.3" y="9.9" class="st0" width="16.3" height="1.4"/>
</g>
<g>
	<rect x="12.4" y="15.9" class="st0" width="8.1" height="1.4"/>
</g>
<g>
	<rect x="12.4" y="18.9" class="st0" width="8.1" height="1.4"/>
</g>
<g>
	<rect x="12.4" y="21.9" class="st0" width="8.1" height="1.4"/>
</g>
<g>
	<rect x="4.3" y="14.6" class="st0" width="6.4" height="9.7"/>
</g>
</svg>
