<?xml version="1.0" encoding="utf-8"?>
<!-- Generator: Adobe Illustrator 20.0.0, SVG Export Plug-In . SVG Version: 6.00 Build 0)  -->
<svg version="1.1" id="Layer_1" xmlns="http://www.w3.org/2000/svg" xmlns:xlink="http://www.w3.org/1999/xlink" x="0px" y="0px"
	 viewBox="0 0 32 32" style="enable-background:new 0 0 32 32;" xml:space="preserve">
<style type="text/css">
	.st0{fill:#07ACC8;}
</style>
<g>
	<path class="st0" d="M20.2,1L8.5,9.6l0,0v11.7c0,0.6,0.3,1.1,0.6,1.5c0.4,0.4,0.9,0.6,1.5,0.6h19c0.6,0,1.1-0.2,1.5-0.6
		s0.6-0.9,0.6-1.5V9.7l0,0L20.2,1z M10,21.1v-9l6.1,3.3L10,21.1z M11.3,22l6.2-5.8l2,1.1c0.2,0.1,0.5,0.2,0.7,0.2
		c0.3,0,0.5-0.1,0.7-0.2l2.1-1.1l6.3,5.9h-18V22z M30.4,21l-6-5.6l6-3.2V21z M20.2,15.9L9.8,10.3l10.3-7.5l10.3,7.5L20.2,15.9z"/>
</g>
<g>
	<path class="st0" d="M10.8,31c-0.3,0-0.5,0-0.8-0.1c-1.2-0.2-2.4-0.9-3.4-1.8l-4.7-4.7c-1-1-1.6-2.2-1.8-3.4
		c-0.2-1.3,0.1-2.4,0.8-3.1l1.8-1.8c0.2-0.2,0.5-0.2,0.7,0l3.2,3.2c0.2,0.2,0.2,0.5,0,0.7l-1.2,1.2l4.7,4.7l1.2-1.2
		c0.2-0.2,0.5-0.2,0.7,0l2.8,2.8c0.1,0.1,0.2,0.2,0.2,0.4s-0.1,0.3-0.2,0.4L13,30.1C12.6,30.7,11.8,31,10.8,31z M3.1,17.2l-1.4,1.4
		c-0.5,0.5-0.7,1.3-0.5,2.2c0.2,1,0.7,2,1.6,2.8l4.7,4.7c0.8,0.8,1.8,1.4,2.8,1.6c0.9,0.2,1.7,0,2.2-0.5l1.4-1.4l-2.1-2.1l-1.2,1.2
		c-0.2,0.2-0.5,0.2-0.7,0l-5.5-5.5c-0.2-0.2-0.2-0.5,0-0.7l1.2-1.2L3.1,17.2z"/>
</g>
</svg>
