<?xml version="1.0" encoding="utf-8"?>
<!-- Generator: Adobe Illustrator 20.0.0, SVG Export Plug-In . SVG Version: 6.00 Build 0)  -->
<svg version="1.1" id="Layer_1" xmlns="http://www.w3.org/2000/svg" xmlns:xlink="http://www.w3.org/1999/xlink" x="0px" y="0px"
	 viewBox="0 0 24 24" style="enable-background:new 0 0 24 24;" xml:space="preserve">
<style type="text/css">
	.st0{fill:#222221;}
</style>
<g>
	<path class="st0" d="M14.4,4.5l2,2L6.3,16.7l-2-2L14.4,4.5 M14.4,2.5L2.2,14.7l4,4L18.5,6.6L14.4,2.5L14.4,2.5z"/>
	<path class="st0" d="M2,16.9l1,1l1,1l0,0l-1.8-0.2L2,16.9L2,16.9 M2,14.9l-1.5,1.5L1,20l3.5,0.5l1.5-1.5l-2-2L2,14.9L2,14.9z"/>
	<path class="st0" d="M17.3,1.9c0.3,0,0.7,0.2,1.2,0.6c0.6,0.7,0.6,1.1,0.3,1.7l-0.4,0.4l-1-1l-1-1l0.4-0.4
		C17.1,1.9,17.2,1.9,17.3,1.9 M17.3,0.5c-0.5,0-0.9,0.2-1.4,0.5l-1.5,1.5l2,2l2,2L20,5v0c0.8-1.4,0.5-2.5-0.5-3.5
		C18.8,0.8,18,0.5,17.3,0.5L17.3,0.5z"/>
</g>
<path class="st0" d="M2.9,23.5h20.6V2.9L2.9,23.5z M22.1,22.1H6.3l1.5-1.5l0.9,0.9c0.1,0.1,0.2,0.1,0.3,0.1c0.1,0,0.3,0,0.4-0.1
	c0.2-0.2,0.2-0.5,0-0.7l-0.9-0.9l0.6-0.6l0.3,0.4c0.1,0.1,0.2,0.1,0.4,0.1c0.1,0,0.3,0,0.3-0.1c0.2-0.2,0.2-0.5,0-0.7l-0.3-0.4
	l0.6-0.6l0.3,0.4c0.1,0.1,0.2,0.1,0.3,0.1c0.1,0,0.3,0,0.4-0.1c0.2-0.2,0.2-0.5,0-0.7l-0.4-0.4l0.6-0.6L12,17
	c0.1,0.1,0.2,0.2,0.4,0.2c0.1,0,0.3-0.1,0.3-0.2c0.2-0.2,0.2-0.5,0-0.7L12.4,16l0.6-0.6l0.4,0.3c0.1,0.1,0.2,0.2,0.3,0.2
	c0.1,0,0.3-0.1,0.4-0.2c0.2-0.2,0.2-0.5,0-0.7l-0.4-0.3l0.5-0.5l0.9,0.9c0.1,0.1,0.2,0.2,0.3,0.2c0.1,0,0.3,0,0.3-0.2
	c0.2-0.2,0.2-0.5,0-0.7l-0.9-0.9l0.2-0.2l0.5,0.5c0.1,0.1,0.2,0.1,0.3,0.1c0.1,0,0.3,0,0.4-0.1c0.2-0.2,0.2-0.5,0-0.7l-0.5-0.5
	l0.6-0.5l0.5,0.5c0.1,0.1,0.2,0.1,0.3,0.1c0.1,0,0.3,0,0.4-0.1c0.2-0.2,0.2-0.5,0-0.7l-0.5-0.5l0.6-0.6l0.5,0.5
	c0.1,0.1,0.2,0.1,0.4,0.1c0.1,0,0.3,0,0.3-0.1c0.2-0.2,0.2-0.5,0-0.7L18.3,10L19,9.4l0.5,0.5c0.1,0.1,0.2,0.1,0.4,0.1
	c0.1,0,0.3,0,0.3-0.1c0.2-0.2,0.2-0.5,0-0.7l-0.5-0.5L20,8.4l0.9,0.9c0.1,0.1,0.2,0.2,0.3,0.2s0.3,0,0.4-0.2c0.2-0.2,0.2-0.5,0-0.7
	l-0.9-0.9l1.4-1.4V22.1z"/>
<g>
	<path class="st0" d="M11.6,19.7h8v-8L11.6,19.7z M18.2,18.3H15l3.1-3.1V18.3z"/>
</g>
<g>
	<path class="st0" d="M13.6,12.8l-0.1,0.1C13.5,12.9,13.5,12.8,13.6,12.8C13.5,12.8,13.6,12.8,13.6,12.8z"/>
</g>
<g>
	<path class="st0" d="M7.2,19.1l-0.1,0.1C7.1,19.3,7.1,19.2,7.2,19.1C7.2,19.2,7.2,19.1,7.2,19.1z"/>
</g>
<g>
	<path class="st0" d="M9.8,16.5l-0.1,0.1C9.7,16.6,9.7,16.6,9.8,16.5C9.8,16.6,9.8,16.5,9.8,16.5z"/>
</g>
<g>
	<path class="st0" d="M8.6,17.8l-0.1,0.1C8.4,17.9,8.5,17.9,8.6,17.8C8.5,17.8,8.5,17.8,8.6,17.8z"/>
</g>
<g>
	<path class="st0" d="M11.1,15.3l-0.1,0.1C11,15.4,11,15.4,11.1,15.3C11,15.3,11,15.3,11.1,15.3z"/>
</g>
<g>
	<path class="st0" d="M12.4,14L12.4,14C12.3,14.1,12.3,14,12.4,14C12.3,14,12.3,14,12.4,14z"/>
</g>
<g>
	<path class="st0" d="M19.4,7l-0.1,0.1C19.3,7.1,19.3,7,19.4,7C19.3,7,19.4,7,19.4,7z"/>
</g>
</svg>
