<?xml version="1.0" encoding="utf-8"?>
<!-- Generator: Adobe Illustrator 20.0.0, SVG Export Plug-In . SVG Version: 6.00 Build 0)  -->
<svg version="1.1" id="Layer_1" xmlns="http://www.w3.org/2000/svg" xmlns:xlink="http://www.w3.org/1999/xlink" x="0px" y="0px"
	 viewBox="0 0 32 32" style="enable-background:new 0 0 32 32;" xml:space="preserve">
<style type="text/css">
	.st0{fill:#FFFFFF;}
</style>
<g>
	<g>
		<path class="st0" d="M26.5,1.3c-1-0.9-2-1.3-3-1.3c-0.6,0-1.3,0.2-1.9,0.7l-2.1,2.1l-17,17L8,25.4l17-17l2.1-2.1
			C28.2,4.4,27.8,2.8,26.5,1.3z M8,23.4l-3.6-3.6l14.9-15L23,8.4L8,23.4z M26,5.4l-1,1l-3.6-3.6l1-1c0.3-0.2,0.7-0.3,1-0.3
			c0.6,0,1.3,0.3,2,1C26.4,3.4,26.6,4.3,26,5.4z"/>
	</g>
	<g>
		<path class="st0" d="M2.1,20.1L0,22.2l0.7,4.9l4.9,0.7l2.1-2.1L2.1,20.1z M5.1,26.3l-3.2-0.4l-0.4-3.2l0.6-0.6l1.8,1.8l1.8,1.8
			L5.1,26.3z"/>
	</g>
</g>
<g>
	<path class="st0" d="M3.3,32H32V3.3L3.3,32z M30.6,30.6H6.7l3.2-3.2l1.7,1.7c0.1,0.1,0.2,0.1,0.3,0.1c0.1,0,0.3-0.1,0.4-0.1
		c0.2-0.2,0.2-0.5,0-0.7l-1.7-1.7l1.2-1.2l0.9,0.9c0.1,0.1,0.2,0.1,0.3,0.1s0.3-0.1,0.3-0.1c0.2-0.2,0.2-0.5,0-0.7l-0.9-0.9l1.1-1
		l0.9,0.9c0.1,0.1,0.2,0.2,0.3,0.2c0.1,0,0.3-0.1,0.3-0.2c0.2-0.2,0.2-0.5,0-0.7l-0.9-0.9l1.1-1.1l0.9,0.9c0.1,0.1,0.2,0.2,0.4,0.2
		s0.3,0,0.3-0.2c0.2-0.2,0.2-0.5,0-0.7L16,21.3l1.1-1.1l0.9,0.9c0.1,0.1,0.2,0.1,0.4,0.1c0.1,0,0.3,0,0.3-0.1c0.2-0.2,0.2-0.5,0-0.7
		l-0.9-0.9l1-1l1.6,1.7c0.1,0.1,0.2,0.1,0.4,0.1c0.1,0,0.3,0,0.3-0.1c0.2-0.2,0.2-0.5,0-0.7l-1.7-1.7l0.9-0.9l1,1
		c0.1,0.1,0.2,0.1,0.3,0.1s0.3,0,0.4-0.1c0.2-0.2,0.2-0.5,0-0.7l-1-1l0.7-0.7l1,1c0.1,0.1,0.2,0.1,0.4,0.1s0.3,0,0.3-0.1
		c0.2-0.2,0.2-0.5,0-0.7l-1-1l1-1l1,1c0.1,0.1,0.2,0.1,0.3,0.1c0.1,0,0.3,0,0.4-0.1c0.2-0.2,0.2-0.5,0-0.7l-1-1l1.1-1.1l1,1
		c0.1,0.1,0.2,0.1,0.3,0.1s0.3-0.1,0.4-0.1c0.2-0.2,0.2-0.5,0-0.7l-1-1l0.7-0.7l1.7,1.7c0.1,0.1,0.2,0.1,0.3,0.1
		c0.1,0,0.3,0,0.4-0.1c0.2-0.2,0.2-0.5,0-0.7l-1.7-1.7l3-3V30.6z"/>
</g>
<g>
	<path class="st0" d="M25.2,19v6.3h-6.3L25.2,19 M26.6,15.6L15.5,26.7h11.1V15.6L26.6,15.6z"/>
</g>
</svg>
