<?xml version="1.0" encoding="utf-8"?>
<!-- Generator: Adobe Illustrator 20.0.0, SVG Export Plug-In . SVG Version: 6.00 Build 0)  -->
<svg version="1.1" id="Layer_1" xmlns="http://www.w3.org/2000/svg" xmlns:xlink="http://www.w3.org/1999/xlink" x="0px" y="0px"
	 viewBox="0 0 24 24" style="enable-background:new 0 0 24 24;" xml:space="preserve">
<style type="text/css">
	.st0{fill:#44A8F0;}
</style>
<g>
	<path class="st0" d="M22.6,18.1v3.5H1.4v-3.5H22.6 M24,16.7H0V23h24V16.7L24,16.7z"/>
</g>
<g>
	<g>
		<path class="st0" d="M7.5,19.8l0.7,0.7l-0.5,0.5l-0.7-0.7l-0.9,0.9l-0.6-0.6l0.9-0.9L5.6,19l0.5-0.5l0.7,0.7l0.8-0.8L8.3,19
			L7.5,19.8z"/>
	</g>
</g>
<g>
	<g>
		<path class="st0" d="M12.7,19.8l0.7,0.7L13,21.1l-0.7-0.7l-0.9,0.9l-0.6-0.6l0.9-0.9L10.9,19l0.5-0.5l0.7,0.7l0.8-0.8l0.6,0.6
			L12.7,19.8z"/>
	</g>
</g>
<g>
	<g>
		<path class="st0" d="M17.5,19.8l0.7,0.7l-0.5,0.5L17,20.4l-0.9,0.9l-0.6-0.6l0.9-0.9L15.6,19l0.5-0.5l0.7,0.7l0.8-0.8l0.6,0.6
			L17.5,19.8z"/>
	</g>
</g>
<g>
	<path class="st0" d="M16.6,6.7c0.6,0,1,0.5,1,1v4.7c0,0.6-0.5,1-1,1H7.4c-0.6,0-1-0.5-1-1V7.7c0-0.6,0.5-1,1-1H16.6 M16.6,5.3H7.4
		C6,5.3,4.9,6.4,4.9,7.7v4.7c0,1.3,1.1,2.4,2.4,2.4h9.3c1.3,0,2.4-1.1,2.4-2.4V7.7C19.1,6.4,18,5.3,16.6,5.3L16.6,5.3z"/>
</g>
<g>
	<path class="st0" d="M15.8,5.3h-1.4V4.2c0-1.3-1.1-2.4-2.4-2.4S9.6,2.8,9.6,4.2v1.1H8.2V4.2c0-2.1,1.7-3.8,3.8-3.8
		c2.1,0,3.8,1.7,3.8,3.8V5.3z"/>
</g>
<g>
	<circle class="st0" cx="12" cy="8.8" r="1.2"/>
</g>
<g>
	<path class="st0" d="M12,12.1c-0.4,0-0.7-0.3-0.7-0.7V9.2c0-0.4,0.3-0.7,0.7-0.7s0.7,0.3,0.7,0.7v2.1C12.7,11.7,12.4,12.1,12,12.1z
		"/>
</g>
</svg>
