<?xml version="1.0" encoding="utf-8"?>
<!-- Generator: Adobe Illustrator 20.0.0, SVG Export Plug-In . SVG Version: 6.00 Build 0)  -->
<svg version="1.1" id="Layer_1" xmlns="http://www.w3.org/2000/svg" xmlns:xlink="http://www.w3.org/1999/xlink" x="0px" y="0px"
	 viewBox="0 0 32 32" style="enable-background:new 0 0 32 32;" xml:space="preserve">
<style type="text/css">
	.st0{fill:#FFFFFF;}
</style>
<g>
	<path class="st0" d="M30.1,24.2v4.6H1.9v-4.6H30.1 M32,22.4H0v8.4h32V22.4L32,22.4z"/>
</g>
<g>
	<g>
		<path class="st0" d="M10,26.6l1,1l-0.7,0.7l-1-1l-1.1,1.1l-0.8-0.8l1.1-1.1l-1-1l0.7-0.7l1,1l1.1-1.1l0.8,0.8L10,26.6z"/>
	</g>
</g>
<g>
	<g>
		<path class="st0" d="M17,26.6l1,1l-0.7,0.7l-1-1l-1.1,1.1l-0.8-0.8l1.1-1.1l-1-1l0.7-0.7l1,1l1.1-1.1l0.8,0.8L17,26.6z"/>
	</g>
</g>
<g>
	<g>
		<path class="st0" d="M23.3,26.6l1,1l-0.7,0.7l-1-1l-1.1,1.1l-0.8-0.8l1.1-1.1l-1-1l0.7-0.7l1,1l1.1-1.1l0.8,0.8L23.3,26.6z"/>
	</g>
</g>
<g>
	<path class="st0" d="M22.2,9.1c0.8,0,1.4,0.6,1.4,1.4v6.2c0,0.8-0.6,1.4-1.4,1.4H9.8c-0.8,0-1.4-0.6-1.4-1.4v-6.2
		c0-0.8,0.6-1.4,1.4-1.4H22.2 M22.2,7.2H9.8c-1.8,0-3.3,1.5-3.3,3.3v6.2c0,1.8,1.5,3.3,3.3,3.3h12.3c1.8,0,3.3-1.5,3.3-3.3v-6.2
		C25.4,8.6,24,7.2,22.2,7.2L22.2,7.2z"/>
</g>
<g>
	<path class="st0" d="M21.1,7.2h-1.9V5.7c0-1.8-1.4-3.2-3.2-3.2s-3.2,1.4-3.2,3.2v1.5h-1.9V5.7c0-2.8,2.3-5.1,5.1-5.1
		c2.8,0,5.1,2.3,5.1,5.1V7.2z"/>
</g>
<g>
	<circle class="st0" cx="16" cy="11.9" r="1.6"/>
</g>
<g>
	<path class="st0" d="M16,16.2c-0.5,0-0.9-0.4-0.9-0.9v-2.8c0-0.5,0.4-0.9,0.9-0.9c0.5,0,0.9,0.4,0.9,0.9v2.8
		C16.9,15.8,16.5,16.2,16,16.2z"/>
</g>
</svg>
