<?xml version="1.0" encoding="utf-8"?>
<!-- Generator: Adobe Illustrator 20.0.0, SVG Export Plug-In . SVG Version: 6.00 Build 0)  -->
<svg version="1.1" id="Layer_1" xmlns="http://www.w3.org/2000/svg" xmlns:xlink="http://www.w3.org/1999/xlink" x="0px" y="0px"
	 viewBox="0 0 20 20" style="enable-background:new 0 0 20 20;" xml:space="preserve">
<style type="text/css">
	.st0{fill:#07ACC8;}
</style>
<g>
	<path class="st0" d="M19.6,17.6l-4.8-4.8c0.9-1.3,1.5-2.9,1.5-4.6c0-4.5-3.6-8.1-8.1-8.1C3.6,0,0,3.6,0,8.1c0,4.5,3.6,8.1,8.1,8.1
		c1.7,0,3.3-0.5,4.7-1.5l4.8,4.8c0.3,0.3,0.6,0.4,1,0.4c0.4,0,0.7-0.1,1-0.4C20.1,19,20.1,18.1,19.6,17.6z M2.1,8.1c0-3.3,2.7-6,6-6
		c3.3,0,6,2.7,6,6c0,3.3-2.7,6-6,6C4.8,14.1,2.1,11.4,2.1,8.1z"/>
</g>
</svg>
